<svg width="48" height="48" viewBox="0 0 48 48" fill="none" xmlns="http://www.w3.org/2000/svg">
<path d="M24.0915 2.09958C22.5165 2.09958 21.0456 2.81677 19.7918 3.99117C18.5382 5.16586 17.4649 6.8018 16.5703 8.78339C16.3828 9.19852 16.2037 9.62996 16.0325 10.075C15.5709 10.0017 15.1072 9.9415 14.6422 9.89442C14.1013 9.84052 13.5734 9.80705 13.0606 9.79505C11.5213 9.75849 10.1144 9.91458 8.88126 10.2884C7.23726 10.7868 5.8807 11.7024 5.0932 13.0662C4.3057 14.4302 4.19132 16.0628 4.5816 17.7359C4.97207 19.4088 5.8521 21.1562 7.12101 22.9219C7.38726 23.2922 7.6717 23.6637 7.97188 24.035C7.6782 24.3976 7.39484 24.7683 7.12213 25.1469C5.85313 26.9125 4.9731 28.6599 4.58273 30.333C4.19235 32.006 4.30682 33.6386 5.09432 35.0024C5.88182 36.3664 7.23838 37.2819 8.88238 37.7802C10.5265 38.2787 12.4799 38.3902 14.6433 38.1741C15.0969 38.1287 15.5602 38.0682 16.0316 37.9939C16.1989 38.4302 16.3785 38.8617 16.5703 39.2879C17.4649 41.2697 18.5381 42.9054 19.7918 44.08C21.0455 45.2545 22.5166 45.9719 24.0915 45.9719C25.6663 45.9719 27.1375 45.2545 28.3912 44.08C29.6448 42.9053 30.7181 41.2696 31.6127 39.2879C31.8045 38.8618 31.9841 38.4304 32.1514 37.9941C32.6222 38.0682 33.0852 38.1288 33.5384 38.1741C35.7019 38.3901 37.6554 38.2786 39.2993 37.7802C40.9435 37.2818 42.3 36.3662 43.0875 35.0024C43.875 33.6383 43.9894 32.0059 43.5991 30.333C43.2087 28.66 42.3285 26.9126 41.0597 25.1469C40.7869 24.7684 40.5035 24.3976 40.2099 24.035C40.504 23.6722 40.7877 23.301 41.0608 22.922C42.3297 21.1563 43.2097 19.4089 43.6001 17.736C43.9904 16.0629 43.876 14.4303 43.0885 13.0663C42.301 11.7025 40.9444 10.7869 39.3004 10.2885C38.0674 9.91467 36.6604 9.75858 35.1212 9.79505C34.608 9.80705 34.0801 9.84052 33.5393 9.89442C33.0855 9.9398 32.6218 10.0006 32.1502 10.0749C31.9831 9.63944 31.8037 9.20877 31.6124 8.78339C30.7177 6.80152 29.6445 5.16558 28.3908 3.99108C27.1371 2.81658 25.666 2.09949 24.0912 2.09949L24.0915 2.09958ZM24.0915 3.85149C25.142 3.85149 26.172 4.31302 27.1933 5.26992C28.2146 6.22664 29.1899 7.67489 30.0159 9.50433C30.1502 9.80282 30.2779 10.1042 30.3989 10.4084C28.3911 10.8548 26.2646 11.5397 24.091 12.4549C21.9179 11.5399 19.7916 10.8552 17.7841 10.4087C17.9081 10.0984 18.0354 9.79599 18.1672 9.50424C18.9931 7.67471 19.9685 6.22646 20.9898 5.26955C22.0111 4.31283 23.0411 3.8513 24.0917 3.8513L24.0915 3.85149ZM12.505 11.5443C12.6741 11.5426 12.8459 11.5438 13.0204 11.5477C13.4854 11.558 13.9689 11.588 14.4682 11.638C14.7875 11.6699 15.1139 11.7106 15.4454 11.7587C14.828 13.7206 14.3579 15.9045 14.0634 18.2444C12.1839 19.6694 10.5273 21.1688 9.13682 22.6846C8.93332 22.4272 8.73555 22.1654 8.54367 21.8992C7.37226 20.2693 6.60585 18.7005 6.28776 17.3375C5.96976 15.9746 6.08526 14.8519 6.61045 13.9422C7.13563 13.0324 8.05045 12.3712 9.38957 11.9652C10.2685 11.6986 11.3208 11.555 12.5049 11.5442L12.505 11.5443ZM35.677 11.5443C36.861 11.5551 37.9134 11.6987 38.7923 11.9653C40.1316 12.3712 41.046 13.0324 41.5713 13.9422C42.0965 14.8519 42.2121 15.9747 41.8941 17.3375C41.5763 18.7004 40.8094 20.2693 39.6382 21.8992C39.4463 22.1654 39.2486 22.4273 39.0452 22.6848C37.6549 21.1692 35.9988 19.6701 34.1199 18.2453C33.8255 15.9051 33.3549 13.7209 32.7374 11.7587C33.0687 11.7106 33.3946 11.6697 33.7137 11.638C34.1949 11.5892 34.6779 11.5591 35.1615 11.5476C35.3333 11.5437 35.5052 11.5426 35.677 11.5441V11.5443ZM30.997 12.0731C31.4629 13.5204 31.8487 15.1173 32.1366 16.8262C31.2065 16.1979 30.2545 15.6027 29.2823 15.0417C28.3109 14.4805 27.3199 13.9539 26.3113 13.4626C27.9351 12.8575 29.5108 12.3932 30.997 12.0733V12.0731ZM17.186 12.0734C18.6719 12.3934 20.2474 12.8577 21.8707 13.4627C20.8621 13.9539 19.8712 14.4806 18.8998 15.0417C17.928 15.6025 16.9764 16.1973 16.0466 16.8252C16.3344 15.1168 16.7201 13.5203 17.186 12.0734ZM24.091 14.3665C25.5166 14.9954 26.9638 15.7262 28.4063 16.5591C29.8494 17.3924 31.2066 18.2804 32.4643 19.201C32.6326 20.7504 32.7232 22.3695 32.7232 24.0357C32.7232 25.7009 32.6329 27.3194 32.4646 28.8681C31.207 29.7885 29.8499 30.6764 28.4073 31.5094C26.9645 32.3424 25.517 33.0735 24.0911 33.7024C22.6649 33.0735 21.2174 32.3424 19.7746 31.5094C18.3323 30.6766 16.9758 29.7891 15.7186 28.869C15.5504 27.32 15.4599 25.7012 15.4599 24.0356C15.4599 22.3692 15.5504 20.7498 15.7188 19.2002C16.9763 18.2799 18.333 17.392 19.7757 16.5591C21.2183 15.7263 22.6654 14.9954 24.091 14.3667V14.3665ZM24.2095 17.0024L19.1937 20.0977L24.2095 23.1933L29.2253 20.0977L24.2095 17.0023V17.0024ZM13.8257 20.6712C13.7469 21.7908 13.7076 22.913 13.7079 24.0354C13.7079 25.179 13.7482 26.3015 13.8258 27.3976C12.4899 26.2942 11.2999 25.1617 10.2795 24.0345C11.2999 22.9075 12.4898 21.7748 13.8257 20.6712ZM34.3574 20.6721C35.6927 21.7755 36.8824 22.9078 37.9024 24.0346C36.8824 25.1615 35.6927 26.2937 34.3574 27.3969C34.4362 26.2782 34.4755 25.157 34.4752 24.0355C34.4752 22.8914 34.4349 21.7686 34.3574 20.6721H34.3574ZM18.0637 21.459V27.5714L23.3315 30.8223V24.7103L18.0637 21.459ZM30.3504 21.4622L25.0838 24.7125V30.8217L30.3505 27.5714V21.4622H30.3504ZM9.13663 25.3847C10.5273 26.9007 12.1837 28.3997 14.063 29.8247C14.3574 32.1643 14.8276 34.348 15.4449 36.3099C15.1139 36.3577 14.7881 36.3987 14.4693 36.4305C12.4721 36.63 10.7299 36.5093 9.3907 36.1034C8.05138 35.6974 7.13695 35.0359 6.61167 34.1262C6.08648 33.2163 5.97088 32.0937 6.28888 30.7308C6.60688 29.368 7.37338 27.7991 8.54479 26.1691C8.73627 25.9033 8.93354 25.6418 9.13663 25.3847ZM39.0451 25.385C39.252 25.6475 39.4501 25.9091 39.637 26.1691C40.8083 27.799 41.5748 29.3679 41.8928 30.7307C42.2108 32.0936 42.0955 33.2162 41.5703 34.1261C41.0449 35.0358 40.1303 35.6973 38.791 36.1033C37.4519 36.5092 35.71 36.6299 33.7127 36.4305C33.387 36.3974 33.0621 36.3572 32.7382 36.31C33.3555 34.3476 33.8257 32.1634 34.1201 29.8234C35.9988 28.3988 37.655 26.9001 39.0452 25.3848L39.0451 25.385ZM32.137 31.2428C31.8492 32.9515 31.4635 34.5484 30.9975 35.9956C29.5112 35.6757 27.9354 35.2111 26.3115 34.6061C27.3204 34.1147 28.3117 33.5878 29.2834 33.0266C30.2553 32.4657 31.2072 31.8707 32.1372 31.2428H32.137ZM16.0462 31.2437C16.9757 31.8714 17.927 32.466 18.8984 33.0266C19.8702 33.5878 20.8615 34.1146 21.8703 34.6061C20.2469 35.211 18.6716 35.6755 17.1854 35.9955C16.7194 34.5485 16.334 32.952 16.0462 31.2437ZM24.1434 31.3234L24.2071 31.3628L24.2706 31.3234H24.1435H24.1434ZM24.0909 35.6141C26.2649 36.5291 28.3916 37.2139 30.3997 37.6603C30.2785 37.9653 30.1505 38.2675 30.0159 38.5668C29.1899 40.3962 28.2146 41.8443 27.1933 42.8012C26.172 43.758 25.142 44.2197 24.0915 44.2197C23.041 44.2197 22.0109 43.758 20.9897 42.8012C19.9685 41.8444 18.9931 40.3962 18.1672 38.5667C18.0326 38.2674 17.9046 37.9651 17.7833 37.6602C19.791 37.2137 21.9175 36.529 24.0911 35.6141H24.0909Z"/>
</svg>
