<svg width="48" height="49" viewBox="0 0 48 49" fill="none" xmlns="http://www.w3.org/2000/svg">
<g clip-path="url(#clip0_1_123)">
<path d="M13.1077 18.5728H-0.184634C-0.593003 18.5728 -0.923096 18.8895 -0.923096 19.2813V23.5323C-0.923096 23.9241 -0.593003 24.2408 -0.184634 24.2408H0.553827V40.5363C0.553827 40.9281 0.88392 41.2448 1.29229 41.2448H11.6308C12.0391 41.2448 12.3692 40.9281 12.3692 40.5363V37.7023V27.0748V24.2408H13.1077C13.516 24.2408 13.8461 23.9241 13.8461 23.5323V19.2813C13.8461 18.8895 13.516 18.5728 13.1077 18.5728ZM4.9846 32.0343V30.6173H9.41537V29.2003H4.9846V27.7833H10.8923V36.9938H4.9846V33.4513H6.46152V32.0343H4.9846ZM10.8923 26.3663H4.24614C3.83777 26.3663 3.50767 26.683 3.50767 27.0748V37.7023C3.50767 38.0941 3.83777 38.4108 4.24614 38.4108H10.8923V39.8278H2.03075V24.2408H10.8923V26.3663ZM12.3692 22.8238H11.6308H1.29229H0.553827V19.9898H12.3692V22.8238Z"/>
<path d="M22.8924 18.7056V13.5258C22.8924 13.1224 22.5623 12.7963 22.1539 12.7963H21.4154V9.14908H22.8924V7.69019H14.7693V9.14908H19.9385V12.7963H19.2001C18.7917 12.7963 18.4616 13.1224 18.4616 13.5258V18.7056C16.7786 19.0448 15.5077 20.5175 15.5077 22.2792V23.7381V37.5976V40.5154C15.5077 40.9188 15.8378 41.2448 16.2462 41.2448H25.1077C25.5161 41.2448 25.8462 40.9188 25.8462 40.5154V37.5976V23.7381V22.2792C25.8462 20.5183 24.5753 19.0448 22.8924 18.7056ZM19.9385 14.2552H21.4154V18.6319H19.9385V14.2552ZM19.2001 20.0908H22.1539C23.3753 20.0908 24.3693 21.0727 24.3693 22.2792V23.0086H16.9847V22.2792C16.9847 21.0727 17.9786 20.0908 19.2001 20.0908ZM24.3693 36.8682H16.9847V35.4093H19.9385V33.9504H16.9847V24.4675H24.3693V36.8682ZM16.9847 39.7859V38.327H24.3693V39.7859H16.9847Z"/>
<path d="M41.7693 17.6659H29.3078C28.9249 17.6659 28.6155 17.9853 28.6155 18.3804V40.5303C28.6155 40.9255 28.9249 41.2448 29.3078 41.2448H41.7693C42.1522 41.2448 42.4616 40.9255 42.4616 40.5303V18.3804C42.4616 17.9853 42.1522 17.6659 41.7693 17.6659ZM41.077 39.8158H30.0001V19.0949H41.077V39.8158Z"/>
<path d="M10.1538 32.176H8.30762V33.0829H10.1538V32.176Z"/>
<path d="M23.0769 33.9897H21.2307V35.8035H23.0769V33.9897Z"/>
<path d="M20.7691 32.1761C22.5509 32.1761 23.9999 30.7525 23.9999 29.002C23.9999 27.2515 22.5509 25.8279 20.7691 25.8279C18.9873 25.8279 17.5383 27.2515 17.5383 29.002C17.5383 30.7525 18.9873 32.1761 20.7691 32.1761ZM20.7691 27.4149C21.66 27.4149 22.3845 28.1267 22.3845 29.002C22.3845 29.8772 21.66 30.589 20.7691 30.589C19.8782 30.589 19.1537 29.8772 19.1537 29.002C19.1537 28.1267 19.8782 27.4149 20.7691 27.4149Z"/>
<path d="M33.8076 24.921H37.2691C38.6053 24.921 39.6922 23.904 39.6922 22.6538C39.6922 21.4036 38.6053 20.3866 37.2691 20.3866H33.8076C32.4714 20.3866 31.3845 21.4036 31.3845 22.6538C31.3845 23.904 32.4714 24.921 33.8076 24.921ZM38.3076 22.6538C38.3076 23.1895 37.8417 23.6255 37.2691 23.6255H36.2307V21.6821H37.2691C37.8417 21.6821 38.3076 22.1181 38.3076 22.6538ZM33.8076 21.6821H34.8461V23.6255H33.8076C33.2351 23.6255 32.7691 23.1895 32.7691 22.6538C32.7691 22.1181 33.2351 21.6821 33.8076 21.6821Z"/>
<path d="M33.8076 32.176H37.2691C38.6053 32.176 39.6922 30.9556 39.6922 29.4554C39.6922 27.9551 38.6053 26.7347 37.2691 26.7347H33.8076C32.4714 26.7347 31.3845 27.9551 31.3845 29.4554C31.3845 30.9556 32.4714 32.176 33.8076 32.176ZM38.3076 29.4554C38.3076 30.0982 37.8417 30.6214 37.2691 30.6214H36.2307V28.2894H37.2691C37.8417 28.2894 38.3076 28.8125 38.3076 29.4554ZM33.8076 28.2894H34.8461V30.6214H33.8076C33.2351 30.6214 32.7691 30.0982 32.7691 29.4554C32.7691 28.8125 33.2351 28.2894 33.8076 28.2894Z"/>
<path d="M33.8076 38.5242H37.2691C38.6053 38.5242 39.6922 37.3038 39.6922 35.8035C39.6922 34.3033 38.6053 33.0829 37.2691 33.0829H33.8076C32.4714 33.0829 31.3845 34.3033 31.3845 35.8035C31.3845 37.3038 32.4714 38.5242 33.8076 38.5242ZM38.3076 35.8035C38.3076 36.4464 37.8417 36.9695 37.2691 36.9695H36.2307V34.6375H37.2691C37.8417 34.6375 38.3076 35.1607 38.3076 35.8035ZM33.8076 34.6375H34.8461V36.9695H33.8076C33.2351 36.9695 32.7691 36.4464 32.7691 35.8035C32.7691 35.1607 33.2351 34.6375 33.8076 34.6375Z"/>
</g>
<defs>
<clipPath id="clip0_1_123">
<rect width="48" height="48" fill="white" transform="translate(0 0.5)"/>
</clipPath>
</defs>
</svg>
