<svg width="48" height="48" viewBox="0 0 48 48" fill="none" xmlns="http://www.w3.org/2000/svg">
<path d="M44.5313 15.4893C44.1521 15.1456 43.6934 14.925 43.2065 14.8521C42.7197 14.7792 42.224 14.857 41.7751 15.0768L32.3063 19.6968C32.2646 19.7219 32.2187 19.7375 32.1715 19.7427C32.1242 19.7479 32.0764 19.7427 32.031 19.7273C31.9855 19.712 31.9434 19.6867 31.9069 19.6532C31.8705 19.6196 31.8405 19.5783 31.8188 19.5318L26.2876 8.60057C26.0633 8.1487 25.7325 7.77161 25.33 7.50889C24.9275 7.24618 24.4681 7.10754 24.0001 7.10754C23.532 7.10754 23.0727 7.24618 22.6701 7.50889C22.2676 7.77161 21.9369 8.1487 21.7126 8.60057L16.1813 19.5318C16.1596 19.5783 16.1297 19.6196 16.0932 19.6532C16.0568 19.6867 16.0146 19.712 15.9692 19.7273C15.9238 19.7427 15.876 19.7479 15.8287 19.7427C15.7814 19.7375 15.7356 19.7219 15.6938 19.6968L6.22508 15.0768C5.77775 14.8537 5.28247 14.773 4.79555 14.8441C4.30863 14.9152 3.84961 15.1351 3.47067 15.4789C3.09174 15.8227 2.80809 16.2765 2.65198 16.7888C2.49587 17.3011 2.47355 17.8513 2.58758 18.3768L7.36883 40.7137C7.4498 41.0912 7.59956 41.4467 7.80905 41.7586C8.01853 42.0706 8.28339 42.3326 8.58758 42.5287C8.98831 42.7985 9.44901 42.9412 9.91883 42.9412C10.1593 42.9388 10.3985 42.9041 10.6313 42.8381C19.3726 40.178 28.6055 40.1709 37.3501 42.8174C37.6912 42.9258 38.0487 42.9568 38.4011 42.9088C38.7534 42.8607 39.0932 42.7345 39.3999 42.5379C39.7067 42.3412 39.9739 42.0782 40.1856 41.7646C40.3973 41.4511 40.5489 41.0936 40.6313 40.7137L45.3938 18.3768C45.5128 17.8551 45.4949 17.3069 45.3423 16.7958C45.1896 16.2848 44.9085 15.8318 44.5313 15.4893ZM43.2188 17.7993L38.4376 40.1362C38.4119 40.2447 38.3521 40.3397 38.2688 40.4043C38.1757 40.4541 38.0702 40.4686 37.9688 40.4456C28.8275 37.6679 19.1727 37.6679 10.0313 40.4456C9.98205 40.4609 9.93043 40.465 9.87966 40.4576C9.82889 40.4502 9.78003 40.4314 9.73611 40.4024C9.69219 40.3734 9.65413 40.3349 9.62429 40.2891C9.59444 40.2433 9.57344 40.1913 9.56258 40.1362L4.78133 17.7993C4.77043 17.7377 4.77185 17.6741 4.7855 17.6131C4.79915 17.5521 4.82469 17.4951 4.86037 17.4461C4.89605 17.397 4.94099 17.3571 4.9921 17.329C5.04321 17.301 5.09924 17.2855 5.15633 17.2837L5.30633 17.3249L14.7938 21.9656C15.3921 22.2619 16.0701 22.2991 16.6922 22.0697C17.3144 21.8403 17.835 21.3612 18.1501 20.7281L23.6813 9.79682C23.7109 9.73166 23.7564 9.67686 23.8127 9.63855C23.869 9.60025 23.9339 9.57995 24.0001 9.57995C24.0663 9.57995 24.1312 9.60025 24.1875 9.63855C24.2438 9.67686 24.2893 9.73166 24.3188 9.79682L29.8501 20.7281C30.1652 21.3612 30.6858 21.8403 31.3079 22.0697C31.9301 22.2991 32.608 22.2619 33.2063 21.9656L42.6938 17.3249C42.7581 17.2936 42.8291 17.2828 42.8988 17.2937C42.9684 17.3047 43.0338 17.3369 43.0876 17.3868C43.1424 17.4352 43.1837 17.4994 43.2069 17.5724C43.2302 17.6453 43.2343 17.7239 43.2188 17.7993ZM31.1251 33.4743C31.0931 33.7789 30.9612 34.0601 30.754 34.2652C30.5469 34.4702 30.2788 34.5851 30.0001 34.5881H29.8876C25.9725 34.155 22.0277 34.155 18.1126 34.5881C17.8168 34.6228 17.5206 34.5273 17.2887 34.3225C17.0568 34.1176 16.9081 33.8201 16.8751 33.4949C16.8487 33.1675 16.9399 32.8418 17.1292 32.5874C17.3184 32.333 17.5906 32.1701 17.8876 32.1337C21.9512 31.6593 26.049 31.6593 30.1126 32.1337C30.406 32.1701 30.6753 32.33 30.864 32.5799C31.0528 32.8298 31.1463 33.1503 31.1251 33.4743Z"/>
</svg>
