<svg width="32" height="32" viewBox="0 0 32 32" fill="none" xmlns="http://www.w3.org/2000/svg">
<path d="M27.6547 22.9573L27.4813 22.7413C26.1093 21.0067 24.9627 20.104 23.9787 19.9853C23.128 19.8693 22.3053 20.4573 21.4307 21.0627L20.496 21.6467C20.384 21.7027 20.2733 21.748 20.1693 21.7787C19.6227 21.9333 18.2427 22.024 17.4613 21.3093C16.552 20.4773 15.1413 18.9547 14.044 17.624C12.996 16.2467 11.844 14.5293 11.2427 13.448C10.7347 12.532 11.16 11.2507 11.444 10.776C11.5 10.6827 11.5733 10.5907 11.6547 10.5L12.4787 9.73866C12.4907 9.72666 12.496 9.712 12.5067 9.70133C12.5147 9.69333 12.528 9.696 12.5373 9.68933C13.2813 9.06133 14.0507 8.41467 14.156 7.584C14.28 6.608 13.6733 5.288 12.2987 3.55467L12.1307 3.33867C11.28 2.248 9.99332 0.598665 8.14532 0.870665C7.41866 0.978665 6.76932 1.22667 6.09999 1.64667C6.09332 1.65067 6.08932 1.65867 6.08399 1.66267C6.07866 1.66667 6.07199 1.66667 6.06666 1.67067L5.13466 2.36133C5.12532 2.36667 5.11999 2.37867 5.11066 2.38667C5.10399 2.39333 5.09332 2.39467 5.08532 2.40133C4.97732 2.492 4.86932 2.58533 4.76266 2.68133C3.81732 3.524 1.77066 5.97067 3.16666 10.496C4.06799 13.4187 5.92666 16.8293 8.55466 20.3787L8.52932 20.4L9.97866 22.2053L9.99066 22.196C12.84 25.5667 15.74 28.172 18.3973 29.7493C20.1707 30.8027 21.72 31.1507 22.9947 31.1507C24.672 31.1507 25.8733 30.548 26.476 30.156L26.8547 29.9027C26.8973 29.8733 26.928 29.832 26.9587 29.7947L27.784 29.1733C27.7933 29.1653 27.7987 29.1547 27.808 29.1467C27.812 29.1427 27.8187 29.144 27.824 29.14C28.4107 28.604 28.8173 28.0427 29.1 27.3773C29.832 25.672 28.5213 24.0387 27.6547 22.9573ZM28.12 26.9587C27.9 27.476 27.5787 27.916 27.1147 28.3427L25.8867 29.2667C24.7747 29.9893 22.3973 30.8827 18.944 28.832C16.2867 27.2547 13.3613 24.588 10.4827 21.12L9.70399 20.136C6.99332 16.5413 5.08666 13.0987 4.18666 10.1813C3.01732 6.388 4.49066 4.35333 5.47732 3.47467C5.57732 3.384 5.67732 3.3 5.77599 3.216L5.77999 3.212L6.67466 2.54933C7.21866 2.20533 7.72266 2.01333 8.30266 1.92533C9.54132 1.73867 10.5493 3.04533 11.2893 3.99467L11.4627 4.21467C12.9987 6.152 13.1467 7.07333 13.0987 7.44933C13.0453 7.86667 12.4107 8.40133 11.8507 8.872L11.772 8.93866C11.7693 8.94133 11.768 8.94533 11.7653 8.948C11.7613 8.95066 11.7573 8.952 11.7533 8.95467L10.9013 9.74267C10.896 9.748 10.8933 9.75466 10.888 9.76133C10.8827 9.768 10.872 9.77066 10.8667 9.77733C10.7347 9.92533 10.6213 10.0733 10.5293 10.2267C10.0507 11.028 9.59866 12.684 10.312 13.9653C10.9347 15.0853 12.12 16.8547 13.2093 18.284C14.348 19.6653 15.8 21.2333 16.7413 22.0933C17.4467 22.7373 18.428 22.9533 19.2773 22.9533C19.732 22.9533 20.1493 22.8907 20.4653 22.8013C20.632 22.7533 20.804 22.684 20.9813 22.5973C20.992 22.592 20.9973 22.5827 21.008 22.576C21.0133 22.5733 21.0213 22.5747 21.0267 22.5707L22.016 21.952C22.048 21.9307 22.0693 21.9027 22.096 21.876L22.108 21.8893C22.7173 21.4667 23.412 20.9707 23.8467 21.0427C24.232 21.0893 25.1067 21.46 26.6453 23.4027L26.8227 23.6253C27.572 24.56 28.5987 25.84 28.12 26.9587Z"/>
</svg>
