<svg width="32" height="32" viewBox="0 0 32 32" fill="none" xmlns="http://www.w3.org/2000/svg">
<path d="M23.9867 2.128C22.6417 1.98532 21.2899 1.91588 19.9374 1.92C15.4534 1.92 12.6667 4.776 12.6667 9.37333V12.4947H8.90007C8.72325 12.4947 8.55368 12.5649 8.42866 12.6899C8.30364 12.815 8.2334 12.9845 8.2334 13.1613V18.2947C8.2334 18.4715 8.30364 18.641 8.42866 18.7661C8.55368 18.8911 8.72325 18.9613 8.90007 18.9613H12.6667V29.2547C12.6667 29.4315 12.737 29.601 12.862 29.7261C12.987 29.8511 13.1566 29.9213 13.3334 29.9213H18.6374C18.8142 29.9213 18.9838 29.8511 19.1088 29.7261C19.2338 29.601 19.3041 29.4315 19.3041 29.2547V18.9613H23.0587C23.2206 18.9614 23.3769 18.9026 23.4986 18.7959C23.6203 18.6892 23.699 18.5418 23.7201 18.3813L24.3827 13.248C24.3951 13.1539 24.3872 13.0583 24.3596 12.9675C24.332 12.8767 24.2853 12.7928 24.2227 12.7215C24.1601 12.6502 24.083 12.5931 23.9966 12.554C23.9101 12.5148 23.8163 12.4946 23.7214 12.4947H19.3041V9.88267C19.3041 8.58933 19.5641 8.04933 21.1814 8.04933H23.9001C24.0769 8.04933 24.2464 7.97909 24.3715 7.85407C24.4965 7.72905 24.5667 7.55948 24.5667 7.38267V2.78933C24.5668 2.62748 24.508 2.47112 24.4013 2.34943C24.2946 2.22775 24.1472 2.14904 23.9867 2.128ZM23.2334 6.71467L21.1801 6.716C18.3041 6.716 17.9707 8.524 17.9707 9.88267V13.1627C17.9707 13.3392 18.0408 13.5086 18.1655 13.6336C18.2903 13.7586 18.4595 13.829 18.6361 13.8293H22.9641L22.4721 17.6293H18.6374C18.4606 17.6293 18.291 17.6996 18.166 17.8246C18.041 17.9496 17.9707 18.1192 17.9707 18.296V28.5867H14.0001V18.296C14.0001 18.1192 13.9298 17.9496 13.8048 17.8246C13.6798 17.6996 13.5102 17.6293 13.3334 17.6293H9.56807V13.8293H13.3334C13.5102 13.8293 13.6798 13.7591 13.8048 13.6341C13.9298 13.509 14.0001 13.3395 14.0001 13.1627V9.37333C14.0001 5.54133 16.2201 3.25333 19.9374 3.25333C21.2827 3.25333 22.4974 3.32667 23.2334 3.39067V6.71467Z"/>
</svg>
